<svg version="1.1" id="Layer_1" xmlns="http://www.w3.org/2000/svg" xmlns:xlink="http://www.w3.org/1999/xlink" x="0px" y="0px"
	 width="100%" viewBox="0 0 512 512" enable-background="new 0 0 512 512" xml:space="preserve">
<path fill="#4861F7" opacity="1.000000" stroke="none" 
	d="
M89.000000,1.000000 
	C230.221436,1.000000 371.442871,1.000000 513.000000,1.000000 
	C513.000000,43.686974 513.000000,86.374832 512.611694,129.495941 
	C507.707001,128.478287 503.276398,126.297737 498.653412,125.754547 
	C492.372314,125.016525 486.882568,119.839142 480.037140,122.491798 
	C479.616241,122.654907 478.897369,121.862190 478.269897,121.713470 
	C476.259369,121.236969 474.230103,120.836311 472.201324,120.441078 
	C470.620880,120.133186 469.007355,119.969604 467.448212,119.582115 
	C460.275452,117.799461 454.861206,109.496696 446.016724,113.809227 
	C445.656403,113.984917 445.016235,113.753799 444.570679,113.562576 
	C437.677002,110.603844 431.194427,107.039383 423.400452,105.906525 
	C418.497009,105.193794 414.207031,101.479050 408.382263,102.311081 
	C405.266937,102.756088 401.697083,100.952515 398.505585,99.716377 
	C393.439087,97.754005 388.530670,95.386536 383.524475,93.263260 
	C382.482086,92.821175 380.999756,92.115654 380.238281,92.516304 
	C373.690216,95.961525 368.035797,92.070877 362.038483,90.671471 
	C355.983276,89.258568 351.102020,83.295738 343.842743,85.680115 
	C342.736969,84.741463 341.864929,83.865585 340.822418,83.546356 
	C333.217285,81.217575 325.554901,79.074417 317.962433,76.706459 
	C315.468933,75.928787 312.987762,73.534012 310.743134,73.814796 
	C302.011627,74.906967 295.099701,69.492134 287.155060,67.854744 
	C281.552673,66.700089 276.563385,62.844982 271.033447,60.992195 
	C264.622681,58.844284 257.940155,57.480518 251.336945,55.942505 
	C246.311447,54.771976 240.983292,54.501152 236.217957,52.698299 
	C226.894470,49.170994 217.940018,44.677979 208.675842,40.977688 
	C206.155762,39.971119 203.054123,40.503197 200.260330,40.067009 
	C198.687225,39.821404 196.818939,39.445351 195.735794,38.431400 
	C190.969543,33.969551 185.261444,32.901360 179.007080,32.353985 
	C173.593155,31.880165 168.085312,30.689735 162.987747,28.813927 
	C155.499878,26.058523 148.491577,22.000799 141.005478,19.239346 
	C129.836334,15.119305 117.649429,14.064337 107.041199,8.111097 
	C105.641823,7.325785 103.796928,7.379115 102.278473,6.752841 
	C97.819862,4.913918 93.421783,2.928220 89.000000,1.000000 
z"/>
<path fill="#2756F8" opacity="1.000000" stroke="none" 
	d="
M513.000000,463.000000 
	C513.000000,479.623657 513.000000,496.247314 513.000000,513.000000 
	C473.312531,513.000000 433.624908,513.000000 393.432434,512.635803 
	C390.544739,510.541931 388.397247,508.026672 385.735199,507.229370 
	C377.620148,504.798859 369.236053,503.272552 361.102264,500.896027 
	C357.373016,499.806396 354.146332,496.742828 350.407257,495.993011 
	C342.354492,494.378113 334.111481,493.723785 325.963440,492.556885 
	C324.926910,492.408417 324.029449,491.458038 323.005066,491.028076 
	C316.837646,488.439667 310.845612,484.630066 304.424744,483.647278 
	C295.913422,482.344543 287.195160,481.728546 279.861389,477.237976 
	C274.994568,474.257965 270.344727,473.375854 265.229828,474.353149 
	C261.258118,475.112000 258.460114,473.916992 255.079315,471.919983 
	C250.115356,468.987885 245.182724,464.621582 238.286835,467.834564 
	C236.526596,468.654724 233.541565,467.647705 231.428131,466.751678 
	C225.988419,464.445465 220.934113,460.986633 215.326828,459.386719 
	C209.577560,457.746246 203.332047,457.912292 197.350784,456.984344 
	C194.974487,456.615631 192.397064,455.891266 190.482742,454.526855 
	C185.928055,451.280670 180.962006,450.461426 175.532486,449.818604 
	C167.233658,448.836090 157.722061,451.496216 151.322113,443.177155 
	C150.891006,442.616821 149.480255,442.712921 148.518372,442.674774 
	C144.202087,442.503662 139.564514,443.360077 135.631958,442.061615 
	C127.485107,439.371704 118.171280,439.032288 111.944595,431.757019 
	C111.427704,431.153076 110.013840,430.896973 109.146027,431.082855 
	C104.318489,432.116974 98.735146,429.257294 94.555908,433.923431 
	C94.132690,434.395935 92.045311,434.298767 91.896385,433.957336 
	C89.807571,429.168182 84.566208,429.564178 80.934631,427.676361 
	C76.251274,425.241760 71.620155,422.082703 64.955559,424.009796 
	C60.786499,425.215271 53.877586,423.493073 50.789909,420.452545 
	C45.295212,415.041687 39.517746,415.509521 33.042854,415.329681 
	C27.888910,415.186523 22.688906,413.924225 17.666094,412.575195 
	C12.018957,411.058472 6.547745,408.886780 1.000001,407.000000 
	C1.000000,402.643097 1.000000,398.286194 1.454148,393.464661 
	C8.728723,394.247498 15.663190,395.091370 22.305767,396.968262 
	C24.535072,397.598206 25.808691,398.212036 27.990410,396.914185 
	C32.156624,394.435669 36.526791,393.630737 41.153484,396.482422 
	C44.178635,398.346924 47.418781,401.565430 51.265991,397.573517 
	C51.475334,397.356293 52.388561,397.446869 52.656483,397.713470 
	C55.615231,400.656982 58.747852,399.040466 61.988621,398.383972 
	C63.842960,398.008301 65.889107,398.557404 67.846581,398.718201 
	C70.522812,398.938049 73.196854,399.184662 77.277016,399.543335 
	C78.983238,402.562683 82.886833,403.086029 88.128441,402.468170 
	C96.808685,401.444946 105.694290,399.562927 114.180176,404.645599 
	C116.723267,406.168854 120.638870,405.817322 123.893082,405.658173 
	C133.564880,405.185181 143.008987,405.644287 152.284821,408.982300 
	C155.136749,410.008606 159.312653,410.462585 161.691620,409.099915 
	C168.205093,405.369019 174.215012,406.692657 179.812088,409.894073 
	C188.163574,414.670959 195.946701,412.641785 203.999573,409.597137 
	C205.224243,409.134094 206.918091,409.396881 208.243057,409.810455 
	C212.298218,411.076202 216.179810,413.190094 220.309921,413.862976 
	C229.007156,415.279907 237.733231,411.054443 246.655701,413.987427 
	C250.691620,415.314148 255.485489,418.339050 259.624908,413.457123 
	C259.819763,413.227356 261.096497,413.980621 261.893005,414.183563 
	C264.824829,414.930542 267.733002,415.990448 270.712830,416.274384 
	C274.675018,416.652008 279.489105,415.022888 282.515350,416.748901 
	C287.728577,419.722229 291.627899,418.077728 296.393951,416.010376 
	C298.999817,416.677643 301.489655,416.892120 303.368958,418.075867 
	C308.063141,421.032745 313.037170,421.771606 318.495331,422.206085 
	C325.747498,422.783417 333.072113,424.175903 340.025513,426.320770 
	C347.771179,428.710022 355.315460,430.906647 363.564667,430.134277 
	C366.028656,429.903534 369.297333,430.422699 371.067139,431.927490 
	C380.728668,440.142303 392.950287,436.241730 403.641815,439.313507 
	C404.234772,439.483856 404.976013,439.079529 405.609772,439.181580 
	C406.404205,439.309448 407.465485,439.447784 407.883331,439.989197 
	C412.109436,445.465729 418.061401,444.109589 423.775909,444.562866 
	C428.863098,444.966370 434.013763,444.336212 439.010742,447.790222 
	C443.794037,451.096558 449.689148,452.990082 456.075867,453.145325 
	C464.864777,453.359009 473.826294,453.742462 481.673401,458.771820 
	C482.607056,459.370239 483.848022,459.622192 484.979706,459.757690 
	C494.315369,460.875488 503.658875,461.927826 513.000000,463.000000 
z"/>
<path fill="#4163F7" opacity="1.000000" stroke="none" 
	d="
M88.531342,1.000000 
	C93.421783,2.928220 97.819862,4.913918 102.278473,6.752841 
	C103.796928,7.379115 105.641823,7.325785 107.041199,8.111097 
	C117.649429,14.064337 129.836334,15.119305 141.005478,19.239346 
	C148.491577,22.000799 155.499878,26.058523 162.987747,28.813927 
	C168.085312,30.689735 173.593155,31.880165 179.007080,32.353985 
	C185.261444,32.901360 190.969543,33.969551 195.735794,38.431400 
	C196.818939,39.445351 198.687225,39.821404 200.260330,40.067009 
	C203.054123,40.503197 206.155762,39.971119 208.675842,40.977688 
	C217.940018,44.677979 226.894470,49.170994 236.217957,52.698299 
	C240.983292,54.501152 246.311447,54.771976 251.336945,55.942505 
	C257.940155,57.480518 264.622681,58.844284 271.033447,60.992195 
	C276.563385,62.844982 281.552673,66.700089 287.155060,67.854744 
	C295.099701,69.492134 302.011627,74.906967 310.743134,73.814796 
	C312.987762,73.534012 315.468933,75.928787 317.962433,76.706459 
	C325.554901,79.074417 333.217285,81.217575 340.822418,83.546356 
	C341.864929,83.865585 342.736969,84.741463 343.430206,85.666534 
	C341.698700,85.727646 340.141754,85.059303 338.769501,85.329369 
	C336.362732,85.803032 334.069183,86.851852 331.728210,87.659752 
	C333.544983,89.030289 335.282959,90.526787 337.204742,91.729500 
	C338.615662,92.612488 340.267517,93.110481 341.812012,93.780045 
	C339.244446,95.217293 337.020233,95.233498 335.157623,96.062340 
	C332.670837,97.168953 330.728638,97.579079 328.320709,95.707108 
	C327.217560,94.849487 325.130890,95.052872 323.502747,95.113022 
	C318.728546,95.289421 313.960999,95.847832 309.190094,95.856522 
	C304.200714,95.865608 299.195618,95.570946 294.225128,95.109749 
	C289.752197,94.694717 289.009094,96.799156 289.546875,100.484756 
	C266.961731,100.499252 244.837250,100.446342 222.713531,100.551956 
	C217.404907,100.577293 212.049133,100.772087 206.800171,101.501587 
	C184.704285,104.572479 166.953110,115.496101 152.116638,132.070312 
	C150.236359,131.272446 148.661484,130.688980 147.236008,129.851303 
	C140.597427,125.950127 133.758133,122.849190 125.828018,122.614471 
	C121.552025,122.487900 117.080467,122.345741 113.077583,121.042305 
	C105.563446,118.595497 98.519585,114.581856 90.926018,112.531113 
	C80.250633,109.648079 69.241577,108.003098 59.024105,103.480843 
	C58.607014,103.296242 57.932304,103.252541 57.563683,103.465401 
	C51.498146,106.968063 46.457695,102.417259 41.894489,100.349335 
	C35.274990,97.349548 27.917248,98.058426 21.351206,93.835480 
	C15.819122,90.277527 7.875916,90.468498 1.000000,89.000000 
	C1.000000,59.739754 1.000000,30.479509 1.000000,1.000000 
	C30.020527,1.000000 59.041603,1.000000 88.531342,1.000000 
z"/>
<path fill="#4160F7" opacity="1.000000" stroke="none" 
	d="
M290.007874,100.475487 
	C289.009094,96.799156 289.752197,94.694717 294.225128,95.109749 
	C299.195618,95.570946 304.200714,95.865608 309.190094,95.856522 
	C313.960999,95.847832 318.728546,95.289421 323.502747,95.113022 
	C325.130890,95.052872 327.217560,94.849487 328.320709,95.707108 
	C330.728638,97.579079 332.670837,97.168953 335.157623,96.062340 
	C337.020233,95.233498 339.244446,95.217293 341.812012,93.780045 
	C340.267517,93.110481 338.615662,92.612488 337.204742,91.729500 
	C335.282959,90.526787 333.544983,89.030289 331.728210,87.659752 
	C334.069183,86.851852 336.362732,85.803032 338.769501,85.329369 
	C340.141754,85.059303 341.698700,85.727646 343.585022,85.987022 
	C351.102020,83.295738 355.983276,89.258568 362.038483,90.671471 
	C368.035797,92.070877 373.690216,95.961525 380.238281,92.516304 
	C380.999756,92.115654 382.482086,92.821175 383.524475,93.263260 
	C388.530670,95.386536 393.439087,97.754005 398.505585,99.716377 
	C401.697083,100.952515 405.266937,102.756088 408.382263,102.311081 
	C414.207031,101.479050 418.497009,105.193794 423.400452,105.906525 
	C431.194427,107.039383 437.677002,110.603844 444.570679,113.562576 
	C445.016235,113.753799 445.656403,113.984917 446.016724,113.809227 
	C454.861206,109.496696 460.275452,117.799461 467.448212,119.582115 
	C469.007355,119.969604 470.620880,120.133186 472.201324,120.441078 
	C474.230103,120.836311 476.259369,121.236969 478.269897,121.713470 
	C478.897369,121.862190 479.616241,122.654907 480.037140,122.491798 
	C486.882568,119.839142 492.372314,125.016525 498.653412,125.754547 
	C503.276398,126.297737 507.707001,128.478287 512.611694,129.964600 
	C513.000000,162.354233 513.000000,194.708450 512.604980,227.444885 
	C509.580261,227.616318 506.950989,227.400299 504.320801,227.196075 
	C500.440857,226.894821 496.440948,227.100632 492.703644,226.206482 
	C483.615997,224.032318 476.081909,217.136520 465.925751,217.764633 
	C462.086060,218.002106 458.262115,216.832199 454.642303,214.444382 
	C450.916687,211.986832 446.266663,210.885315 441.953766,209.383850 
	C439.967407,208.692337 437.837769,208.223145 435.742859,208.071548 
	C431.180450,207.741364 426.532959,208.085098 422.048859,207.359100 
	C419.265106,206.908371 416.831421,204.392700 414.040680,203.868820 
	C406.990356,202.545349 400.609253,197.763489 392.923920,199.674210 
	C392.490753,199.781906 391.952362,199.503555 391.471008,199.374710 
	C386.042542,197.921600 380.615692,196.462570 375.139984,194.581192 
	C375.156067,192.996994 375.206451,191.835754 375.287018,190.676620 
	C378.034973,151.134399 351.379333,113.964607 312.936340,103.484436 
	C309.940399,101.561218 307.083069,99.804710 304.018158,98.559006 
	C303.431396,98.320526 302.027130,100.093483 300.543457,100.985741 
	C296.727264,100.847176 293.367554,100.661331 290.007874,100.475487 
z"/>
<path fill="#2255F8" opacity="1.000000" stroke="none" 
	d="
M1.000001,407.468658 
	C6.547745,408.886780 12.018957,411.058472 17.666094,412.575195 
	C22.688906,413.924225 27.888910,415.186523 33.042854,415.329681 
	C39.517746,415.509521 45.295212,415.041687 50.789909,420.452545 
	C53.877586,423.493073 60.786499,425.215271 64.955559,424.009796 
	C71.620155,422.082703 76.251274,425.241760 80.934631,427.676361 
	C84.566208,429.564178 89.807571,429.168182 91.896385,433.957336 
	C92.045311,434.298767 94.132690,434.395935 94.555908,433.923431 
	C98.735146,429.257294 104.318489,432.116974 109.146027,431.082855 
	C110.013840,430.896973 111.427704,431.153076 111.944595,431.757019 
	C118.171280,439.032288 127.485107,439.371704 135.631958,442.061615 
	C139.564514,443.360077 144.202087,442.503662 148.518372,442.674774 
	C149.480255,442.712921 150.891006,442.616821 151.322113,443.177155 
	C157.722061,451.496216 167.233658,448.836090 175.532486,449.818604 
	C180.962006,450.461426 185.928055,451.280670 190.482742,454.526855 
	C192.397064,455.891266 194.974487,456.615631 197.350784,456.984344 
	C203.332047,457.912292 209.577560,457.746246 215.326828,459.386719 
	C220.934113,460.986633 225.988419,464.445465 231.428131,466.751678 
	C233.541565,467.647705 236.526596,468.654724 238.286835,467.834564 
	C245.182724,464.621582 250.115356,468.987885 255.079315,471.919983 
	C258.460114,473.916992 261.258118,475.112000 265.229828,474.353149 
	C270.344727,473.375854 274.994568,474.257965 279.861389,477.237976 
	C287.195160,481.728546 295.913422,482.344543 304.424744,483.647278 
	C310.845612,484.630066 316.837646,488.439667 323.005066,491.028076 
	C324.029449,491.458038 324.926910,492.408417 325.963440,492.556885 
	C334.111481,493.723785 342.354492,494.378113 350.407257,495.993011 
	C354.146332,496.742828 357.373016,499.806396 361.102264,500.896027 
	C369.236053,503.272552 377.620148,504.798859 385.735199,507.229370 
	C388.397247,508.026672 390.544739,510.541931 392.963745,512.635803 
	C342.645782,513.000000 292.291534,513.000000 241.297791,512.684937 
	C235.437164,510.539001 230.313629,508.307037 224.963715,507.005951 
	C220.783752,505.989380 216.233704,506.545013 212.010529,505.642242 
	C207.340744,504.644012 202.884766,502.682922 198.281845,501.323425 
	C194.284332,500.142761 190.119400,498.099487 186.192673,498.424072 
	C179.284821,498.995056 172.721451,499.692413 166.371063,496.024384 
	C158.544434,491.503693 150.108322,491.185883 141.360764,492.655212 
	C139.227646,493.013489 136.402145,492.551605 134.659164,491.354370 
	C127.418030,486.380432 119.759697,485.410858 111.125969,486.303101 
	C107.157082,486.713196 101.879402,488.920471 98.372131,483.654083 
	C94.993057,478.580322 86.032974,476.620178 79.925751,478.103180 
	C75.700768,479.129120 70.764687,480.063385 66.825317,478.844391 
	C58.363293,476.225983 50.122303,473.748505 41.088486,473.833527 
	C35.451904,473.886566 29.832060,473.102783 24.869059,468.985718 
	C22.564470,467.073914 18.090672,467.720428 14.586331,467.332886 
	C12.518005,467.104095 10.305338,467.513397 8.367096,466.934418 
	C5.575026,466.100342 3.138759,464.900574 2.602119,469.309509 
	C2.526735,469.928864 1.556194,470.439209 1.000003,471.000000 
	C1.000000,449.979095 1.000000,428.958221 1.000001,407.468658 
z"/>
<path fill="#3862F8" opacity="1.000000" stroke="none" 
	d="
M1.000000,89.468658 
	C7.875916,90.468498 15.819122,90.277527 21.351206,93.835480 
	C27.917248,98.058426 35.274990,97.349548 41.894489,100.349335 
	C46.457695,102.417259 51.498146,106.968063 57.563683,103.465401 
	C57.932304,103.252541 58.607014,103.296242 59.024105,103.480843 
	C69.241577,108.003098 80.250633,109.648079 90.926018,112.531113 
	C98.519585,114.581856 105.563446,118.595497 113.077583,121.042305 
	C117.080467,122.345741 121.552025,122.487900 125.828018,122.614471 
	C133.758133,122.849190 140.597427,125.950127 147.236008,129.851303 
	C148.661484,130.688980 150.236359,131.272446 151.959961,132.385254 
	C149.326035,137.211563 146.063934,141.416382 143.690582,146.074066 
	C129.705994,173.518753 130.600372,200.872742 144.372971,228.102264 
	C143.218765,228.381378 142.291611,228.929703 141.620468,228.706894 
	C134.560287,226.362976 127.542320,223.892105 120.509033,221.466919 
	C119.459755,221.105118 118.355186,220.424271 117.337692,220.523239 
	C106.216240,221.605026 95.840164,218.948563 86.041122,214.023239 
	C82.652191,212.319839 79.666298,212.588028 76.087364,212.866760 
	C71.791840,213.201294 66.738678,212.708420 63.105499,210.648224 
	C57.017410,207.195969 51.599777,202.851044 43.978436,204.694016 
	C43.030796,204.923187 41.941315,205.035812 41.014793,204.807617 
	C33.843018,203.041336 26.707308,201.128723 19.536234,199.359482 
	C13.374062,197.839142 7.179973,196.448181 0.999999,195.000000 
	C1.000000,159.979111 1.000000,124.958214 1.000000,89.468658 
z"/>
<path fill="#295BF8" opacity="1.000000" stroke="none" 
	d="
M296.000000,415.998779 
	C291.627899,418.077728 287.728577,419.722229 282.515350,416.748901 
	C279.489105,415.022888 274.675018,416.652008 270.712830,416.274384 
	C267.733002,415.990448 264.824829,414.930542 261.893005,414.183563 
	C261.096497,413.980621 259.819763,413.227356 259.624908,413.457123 
	C255.485489,418.339050 250.691620,415.314148 246.655701,413.987427 
	C237.733231,411.054443 229.007156,415.279907 220.309921,413.862976 
	C216.179810,413.190094 212.298218,411.076202 208.243057,409.810455 
	C206.918091,409.396881 205.224243,409.134094 203.999573,409.597137 
	C195.946701,412.641785 188.163574,414.670959 179.812088,409.894073 
	C174.215012,406.692657 168.205093,405.369019 161.691620,409.099915 
	C159.312653,410.462585 155.136749,410.008606 152.284821,408.982300 
	C143.008987,405.644287 133.564880,405.185181 123.893082,405.658173 
	C120.638870,405.817322 116.723267,406.168854 114.180176,404.645599 
	C105.694290,399.562927 96.808685,401.444946 88.128441,402.468170 
	C82.886833,403.086029 78.983238,402.562683 77.277016,399.543335 
	C73.196854,399.184662 70.522812,398.938049 67.846581,398.718201 
	C65.889107,398.557404 63.842960,398.008301 61.988621,398.383972 
	C58.747852,399.040466 55.615231,400.656982 52.656483,397.713470 
	C52.388561,397.446869 51.475334,397.356293 51.265991,397.573517 
	C47.418781,401.565430 44.178635,398.346924 41.153484,396.482422 
	C36.526791,393.630737 32.156624,394.435669 27.990410,396.914185 
	C25.808691,398.212036 24.535072,397.598206 22.305767,396.968262 
	C15.663190,395.091370 8.728723,394.247498 1.454148,393.000000 
	C1.000000,366.645782 1.000000,340.291534 1.458660,313.468658 
	C11.810749,312.046875 21.430672,312.762299 30.444107,317.490173 
	C31.276484,317.926758 32.387089,317.903107 33.376118,317.959412 
	C39.451565,318.305176 45.201740,322.421356 51.609268,319.482269 
	C52.238857,319.193451 53.401642,320.158875 54.345573,320.449005 
	C62.153320,322.849152 69.955650,325.268921 77.794830,327.562439 
	C78.839798,327.868225 80.083427,327.522766 81.232346,327.440826 
	C88.505562,326.922302 94.838890,328.776550 101.356201,332.503693 
	C106.021423,335.171692 112.429886,334.827942 118.083641,335.673737 
	C118.639107,335.756836 119.543350,334.881256 119.965004,334.239868 
	C121.498177,331.907471 122.818855,333.269379 124.849648,333.710663 
	C129.654221,334.754761 131.581604,343.531952 138.391968,338.733276 
	C138.598221,338.587891 139.245804,339.155640 139.716751,339.284302 
	C141.904846,339.882080 144.074936,340.610779 146.303162,340.984253 
	C152.939087,342.096680 159.626389,342.918518 166.238571,344.149689 
	C169.564743,344.769012 172.771652,346.028931 176.132858,347.458588 
	C176.233215,366.478973 176.233215,385.039948 176.233215,403.997772 
	C178.879517,403.997772 180.846115,403.995056 182.812714,403.998138 
	C218.208298,404.053284 253.603867,404.109131 288.877319,404.449493 
	C288.058197,405.785583 287.361267,406.837036 286.567139,408.035065 
	C289.757507,410.952423 297.308258,408.416046 296.000000,415.998779 
z"/>
<path fill="#2D58F7" opacity="1.000000" stroke="none" 
	d="
M296.393951,416.010376 
	C297.308258,408.416046 289.757507,410.952423 286.567139,408.035065 
	C287.361267,406.837036 288.058197,405.785583 289.340454,404.379761 
	C303.316437,404.385376 316.385406,402.788788 328.848145,397.570343 
	C347.532959,389.746521 360.809204,376.318054 369.758057,358.559998 
	C371.876343,362.323364 373.437286,364.751648 378.211548,361.542358 
	C382.221375,358.846954 387.063477,359.539032 390.932373,363.539185 
	C392.155212,364.803467 394.737946,366.132690 396.083191,365.664551 
	C402.654846,363.377716 408.437683,367.653656 414.802521,367.406036 
	C418.752594,367.252380 422.799713,370.428162 426.795532,370.409912 
	C432.175385,370.385406 436.834503,373.007782 442.258881,373.299835 
	C446.809326,373.544769 451.832947,375.143005 456.874329,375.659454 
	C466.641968,376.660156 476.102325,380.243195 486.164734,379.157349 
	C487.201416,379.045471 488.310730,379.978119 489.431091,380.210541 
	C497.280823,381.838776 505.142273,383.410309 513.000000,385.000000 
	C513.000000,410.687561 513.000000,436.375122 513.000000,462.531342 
	C503.658875,461.927826 494.315369,460.875488 484.979706,459.757690 
	C483.848022,459.622192 482.607056,459.370239 481.673401,458.771820 
	C473.826294,453.742462 464.864777,453.359009 456.075867,453.145325 
	C449.689148,452.990082 443.794037,451.096558 439.010742,447.790222 
	C434.013763,444.336212 428.863098,444.966370 423.775909,444.562866 
	C418.061401,444.109589 412.109436,445.465729 407.883331,439.989197 
	C407.465485,439.447784 406.404205,439.309448 405.609772,439.181580 
	C404.976013,439.079529 404.234772,439.483856 403.641815,439.313507 
	C392.950287,436.241730 380.728668,440.142303 371.067139,431.927490 
	C369.297333,430.422699 366.028656,429.903534 363.564667,430.134277 
	C355.315460,430.906647 347.771179,428.710022 340.025513,426.320770 
	C333.072113,424.175903 325.747498,422.783417 318.495331,422.206085 
	C313.037170,421.771606 308.063141,421.032745 303.368958,418.075867 
	C301.489655,416.892120 298.999817,416.677643 296.393951,416.010376 
z"/>
<path fill="#395EF7" opacity="1.000000" stroke="none" 
	d="
M375.188385,195.005142 
	C380.615692,196.462570 386.042542,197.921600 391.471008,199.374710 
	C391.952362,199.503555 392.490753,199.781906 392.923920,199.674210 
	C400.609253,197.763489 406.990356,202.545349 414.040680,203.868820 
	C416.831421,204.392700 419.265106,206.908371 422.048859,207.359100 
	C426.532959,208.085098 431.180450,207.741364 435.742859,208.071548 
	C437.837769,208.223145 439.967407,208.692337 441.953766,209.383850 
	C446.266663,210.885315 450.916687,211.986832 454.642303,214.444382 
	C458.262115,216.832199 462.086060,218.002106 465.925751,217.764633 
	C476.081909,217.136520 483.615997,224.032318 492.703644,226.206482 
	C496.440948,227.100632 500.440857,226.894821 504.320801,227.196075 
	C506.950989,227.400299 509.580261,227.616318 512.604980,227.913544 
	C513.000000,254.020889 513.000000,280.041779 512.598267,306.543518 
	C508.720306,306.569458 505.243561,306.118927 501.768402,305.656494 
	C500.956421,305.548431 500.124207,305.201080 499.344727,305.301392 
	C491.921692,306.256165 484.654694,306.821503 479.180756,300.088745 
	C478.653534,299.440277 477.391144,299.334534 476.440186,299.095551 
	C473.103363,298.256958 469.788269,297.231262 466.397827,296.737640 
	C463.552704,296.323425 460.608246,296.643982 457.718414,296.466492 
	C455.638733,296.338715 453.380219,296.372833 451.540771,295.563568 
	C443.940979,292.220062 436.438660,288.993225 427.775757,291.049225 
	C425.976898,291.476166 423.808868,291.096436 421.987915,290.524719 
	C418.242432,289.348816 414.682861,287.571014 410.926147,286.442566 
	C404.950623,284.647705 398.901215,283.079956 392.838165,281.599976 
	C383.952087,279.430908 375.032379,277.397675 366.111847,275.373474 
	C364.579224,275.025696 362.766724,274.462189 361.440887,274.956635 
	C358.746429,275.961517 356.909241,275.689941 354.766418,273.608154 
	C352.552551,271.457367 349.956543,270.889130 348.656982,274.954834 
	C343.284668,271.143494 338.226532,267.459229 332.566864,263.336853 
	C354.303650,245.017624 371.955414,224.413361 375.188385,195.005142 
z"/>
<path fill="#345CF7" opacity="1.000000" stroke="none" 
	d="
M348.971161,275.081940 
	C349.956543,270.889130 352.552551,271.457367 354.766418,273.608154 
	C356.909241,275.689941 358.746429,275.961517 361.440887,274.956635 
	C362.766724,274.462189 364.579224,275.025696 366.111847,275.373474 
	C375.032379,277.397675 383.952087,279.430908 392.838165,281.599976 
	C398.901215,283.079956 404.950623,284.647705 410.926147,286.442566 
	C414.682861,287.571014 418.242432,289.348816 421.987915,290.524719 
	C423.808868,291.096436 425.976898,291.476166 427.775757,291.049225 
	C436.438660,288.993225 443.940979,292.220062 451.540771,295.563568 
	C453.380219,296.372833 455.638733,296.338715 457.718414,296.466492 
	C460.608246,296.643982 463.552704,296.323425 466.397827,296.737640 
	C469.788269,297.231262 473.103363,298.256958 476.440186,299.095551 
	C477.391144,299.334534 478.653534,299.440277 479.180756,300.088745 
	C484.654694,306.821503 491.921692,306.256165 499.344727,305.301392 
	C500.124207,305.201080 500.956421,305.548431 501.768402,305.656494 
	C505.243561,306.118927 508.720306,306.569458 512.598267,307.012177 
	C513.000000,332.687561 513.000000,358.375122 513.000000,384.531342 
	C505.142273,383.410309 497.280823,381.838776 489.431091,380.210541 
	C488.310730,379.978119 487.201416,379.045471 486.164734,379.157349 
	C476.102325,380.243195 466.641968,376.660156 456.874329,375.659454 
	C451.832947,375.143005 446.809326,373.544769 442.258881,373.299835 
	C436.834503,373.007782 432.175385,370.385406 426.795532,370.409912 
	C422.799713,370.428162 418.752594,367.252380 414.802521,367.406036 
	C408.437683,367.653656 402.654846,363.377716 396.083191,365.664551 
	C394.737946,366.132690 392.155212,364.803467 390.932373,363.539185 
	C387.063477,359.539032 382.221375,358.846954 378.211548,361.542358 
	C373.437286,364.751648 371.876343,362.323364 369.831665,358.216919 
	C377.024231,338.378845 377.648529,319.357697 368.870392,300.409485 
	C364.218536,290.368195 356.309753,282.968323 348.971161,275.081940 
z"/>
<path fill="#3260F8" opacity="1.000000" stroke="none" 
	d="
M0.999999,195.468658 
	C7.179973,196.448181 13.374062,197.839142 19.536234,199.359482 
	C26.707308,201.128723 33.843018,203.041336 41.014793,204.807617 
	C41.941315,205.035812 43.030796,204.923187 43.978436,204.694016 
	C51.599777,202.851044 57.017410,207.195969 63.105499,210.648224 
	C66.738678,212.708420 71.791840,213.201294 76.087364,212.866760 
	C79.666298,212.588028 82.652191,212.319839 86.041122,214.023239 
	C95.840164,218.948563 106.216240,221.605026 117.337692,220.523239 
	C118.355186,220.424271 119.459755,221.105118 120.509033,221.466919 
	C127.542320,223.892105 134.560287,226.362976 141.620468,228.706894 
	C142.291611,228.929703 143.218765,228.381378 144.595673,228.373932 
	C151.814102,240.967148 161.631195,250.313339 173.273315,257.987640 
	C174.674438,258.911255 176.121643,260.996338 176.150772,262.568939 
	C176.332413,272.375000 176.116394,282.188385 175.588409,291.999451 
	C168.850159,290.716064 162.529587,289.546631 156.268951,288.115082 
	C150.651978,286.830780 145.156113,284.956024 139.500717,283.922455 
	C135.918060,283.267670 132.125366,283.861267 128.456116,283.550140 
	C125.523766,283.301483 122.652573,282.402222 119.724480,282.019409 
	C111.893845,280.995667 104.026764,280.233429 96.215538,279.085724 
	C92.302917,278.510834 87.934288,275.702850 84.741882,276.779877 
	C79.605438,278.512756 76.150642,275.915161 72.013962,274.804779 
	C70.421585,274.377319 68.749191,274.235291 67.107071,274.007965 
	C57.994068,272.746368 48.877026,271.513824 39.765812,270.239594 
	C35.074341,269.583496 30.372810,268.233093 25.711935,268.375824 
	C22.216587,268.482849 19.760080,268.729034 18.062271,264.996643 
	C17.048939,262.768951 15.124306,261.270447 12.739532,264.391418 
	C12.128186,265.191498 9.754131,265.290375 8.515584,264.831787 
	C5.896533,263.862000 3.492332,262.312012 1.000001,261.000000 
	C1.000000,239.312439 1.000000,217.624878 0.999999,195.468658 
z"/>
<path fill="#2E5EF8" opacity="1.000000" stroke="none" 
	d="
M1.000001,261.468658 
	C3.492332,262.312012 5.896533,263.862000 8.515584,264.831787 
	C9.754131,265.290375 12.128186,265.191498 12.739532,264.391418 
	C15.124306,261.270447 17.048939,262.768951 18.062271,264.996643 
	C19.760080,268.729034 22.216587,268.482849 25.711935,268.375824 
	C30.372810,268.233093 35.074341,269.583496 39.765812,270.239594 
	C48.877026,271.513824 57.994068,272.746368 67.107071,274.007965 
	C68.749191,274.235291 70.421585,274.377319 72.013962,274.804779 
	C76.150642,275.915161 79.605438,278.512756 84.741882,276.779877 
	C87.934288,275.702850 92.302917,278.510834 96.215538,279.085724 
	C104.026764,280.233429 111.893845,280.995667 119.724480,282.019409 
	C122.652573,282.402222 125.523766,283.301483 128.456116,283.550140 
	C132.125366,283.861267 135.918060,283.267670 139.500717,283.922455 
	C145.156113,284.956024 150.651978,286.830780 156.268951,288.115082 
	C162.529587,289.546631 168.850159,290.716064 175.688980,292.458862 
	C176.166367,310.945160 176.099442,328.972137 176.032501,346.999146 
	C172.771652,346.028931 169.564743,344.769012 166.238571,344.149689 
	C159.626389,342.918518 152.939087,342.096680 146.303162,340.984253 
	C144.074936,340.610779 141.904846,339.882080 139.716751,339.284302 
	C139.245804,339.155640 138.598221,338.587891 138.391968,338.733276 
	C131.581604,343.531952 129.654221,334.754761 124.849648,333.710663 
	C122.818855,333.269379 121.498177,331.907471 119.965004,334.239868 
	C119.543350,334.881256 118.639107,335.756836 118.083641,335.673737 
	C112.429886,334.827942 106.021423,335.171692 101.356201,332.503693 
	C94.838890,328.776550 88.505562,326.922302 81.232346,327.440826 
	C80.083427,327.522766 78.839798,327.868225 77.794830,327.562439 
	C69.955650,325.268921 62.153320,322.849152 54.345573,320.449005 
	C53.401642,320.158875 52.238857,319.193451 51.609268,319.482269 
	C45.201740,322.421356 39.451565,318.305176 33.376118,317.959412 
	C32.387089,317.903107 31.276484,317.926758 30.444107,317.490173 
	C21.430672,312.762299 11.810749,312.046875 1.458660,313.000000 
	C1.000000,295.979095 1.000000,278.958221 1.000001,261.468658 
z"/>
<path fill="#1E53F8" opacity="1.000000" stroke="none" 
	d="
M1.000003,471.468658 
	C1.556194,470.439209 2.526735,469.928864 2.602119,469.309509 
	C3.138759,464.900574 5.575026,466.100342 8.367096,466.934418 
	C10.305338,467.513397 12.518005,467.104095 14.586331,467.332886 
	C18.090672,467.720428 22.564470,467.073914 24.869059,468.985718 
	C29.832060,473.102783 35.451904,473.886566 41.088486,473.833527 
	C50.122303,473.748505 58.363293,476.225983 66.825317,478.844391 
	C70.764687,480.063385 75.700768,479.129120 79.925751,478.103180 
	C86.032974,476.620178 94.993057,478.580322 98.372131,483.654083 
	C101.879402,488.920471 107.157082,486.713196 111.125969,486.303101 
	C119.759697,485.410858 127.418030,486.380432 134.659164,491.354370 
	C136.402145,492.551605 139.227646,493.013489 141.360764,492.655212 
	C150.108322,491.185883 158.544434,491.503693 166.371063,496.024384 
	C172.721451,499.692413 179.284821,498.995056 186.192673,498.424072 
	C190.119400,498.099487 194.284332,500.142761 198.281845,501.323425 
	C202.884766,502.682922 207.340744,504.644012 212.010529,505.642242 
	C216.233704,506.545013 220.783752,505.989380 224.963715,507.005951 
	C230.313629,508.307037 235.437164,510.539001 240.829132,512.684937 
	C160.999985,513.000000 80.999954,513.000000 1.000000,513.000000 
	C1.000000,499.228180 1.000000,485.582733 1.000003,471.468658 
z"/>
<path fill="#FEFEFF" opacity="1.000000" stroke="none" 
	d="
M176.132858,347.458557 
	C176.099442,328.972137 176.166367,310.945160 176.132736,292.458740 
	C176.116394,282.188385 176.332413,272.375000 176.150772,262.568939 
	C176.121643,260.996338 174.674438,258.911255 173.273315,257.987640 
	C161.631195,250.313339 151.814102,240.967148 144.941589,228.285156 
	C130.600372,200.872742 129.705994,173.518753 143.690582,146.074066 
	C146.063934,141.416382 149.326035,137.211563 152.334198,132.482544 
	C166.953110,115.496101 184.704285,104.572479 206.800171,101.501587 
	C212.049133,100.772087 217.404907,100.577293 222.713531,100.551956 
	C244.837250,100.446342 266.961731,100.499252 289.546875,100.484756 
	C293.367554,100.661331 296.727264,100.847176 300.911133,101.130508 
	C305.491180,102.094933 309.246979,102.961868 313.002808,103.828796 
	C351.379333,113.964607 378.034973,151.134399 375.287018,190.676620 
	C375.206451,191.835754 375.156067,192.996994 375.139984,194.581192 
	C371.955414,224.413361 354.303650,245.017624 332.566864,263.336853 
	C338.226532,267.459229 343.284668,271.143494 348.656982,274.954834 
	C356.309753,282.968323 364.218536,290.368195 368.870392,300.409485 
	C377.648529,319.357697 377.024231,338.378845 369.638855,357.873901 
	C360.809204,376.318054 347.532959,389.746521 328.848145,397.570343 
	C316.385406,402.788788 303.316437,404.385376 289.462585,404.095093 
	C253.603867,404.109131 218.208298,404.053284 182.812714,403.998138 
	C180.846115,403.995056 178.879517,403.997772 176.233215,403.997772 
	C176.233215,385.039948 176.233215,366.478973 176.132858,347.458557 
M160.101578,203.752060 
	C165.048126,219.538757 174.689713,231.563004 189.088135,239.706924 
	C198.718567,245.153976 209.141052,247.551010 220.178696,247.491379 
	C229.447021,247.441315 238.715836,247.481079 248.608673,247.481079 
	C243.224243,274.968964 237.985413,301.713531 232.475021,329.844513 
	C234.790665,327.667206 236.116943,326.486664 237.369507,325.232483 
	C257.351837,305.224335 277.316528,285.198517 297.304535,265.196045 
	C303.995575,258.500122 310.740662,251.858215 318.033295,244.900986 
	C323.488953,239.518692 329.199738,234.368851 334.354126,228.712036 
	C352.334595,208.978958 357.122192,186.243729 346.640778,161.691299 
	C336.333466,137.546799 316.915253,124.964127 290.669434,124.306068 
	C267.022919,123.713173 243.349625,124.118378 219.688583,124.206406 
	C207.429245,124.252007 196.012222,127.417152 185.628372,134.091537 
	C162.765503,148.786972 151.446182,179.342697 160.101578,203.752060 
z"/>
<path fill="#4163F7" opacity="1.000000" stroke="none" 
	d="
M312.936340,103.484436 
	C309.246979,102.961868 305.491180,102.094933 301.367676,101.083237 
	C302.027130,100.093483 303.431396,98.320526 304.018158,98.559006 
	C307.083069,99.804710 309.940399,101.561218 312.936340,103.484436 
z"/>
<path fill="#3B61F8" opacity="1.000000" stroke="none" 
	d="
M160.136597,203.005875 
	C151.446182,179.342697 162.765503,148.786972 185.628372,134.091537 
	C196.012222,127.417152 207.429245,124.252007 219.688583,124.206406 
	C243.349625,124.118378 267.022919,123.713173 290.669434,124.306068 
	C316.915253,124.964127 336.333466,137.546799 346.640778,161.691299 
	C357.122192,186.243729 352.334595,208.978958 334.354126,228.712036 
	C329.199738,234.368851 323.488953,239.518692 317.364258,244.888916 
	C312.980469,243.983444 309.206543,243.281464 305.564026,242.154526 
	C299.135345,240.165604 292.744354,238.034882 286.416107,235.746399 
	C279.519501,233.252411 272.953308,228.858597 265.185638,233.405136 
	C264.349915,233.894302 262.304871,232.605362 260.961121,231.880966 
	C257.803925,230.178955 254.895996,227.232071 251.593414,226.733032 
	C242.675934,225.385559 234.188431,222.930618 225.933929,219.452606 
	C223.401749,218.385651 220.891785,217.265427 218.351761,216.217804 
	C216.030655,215.260452 213.752792,213.919678 211.331863,213.541306 
	C206.386505,212.768387 201.297928,212.847794 196.390320,211.926376 
	C194.142807,211.504395 192.138229,208.436981 190.103790,208.520706 
	C186.185532,208.681961 184.402359,206.959305 182.711639,203.980545 
	C182.336563,203.319763 179.805908,202.945496 179.251236,203.473145 
	C175.130417,207.393082 170.827133,206.300232 166.293655,204.567429 
	C164.329330,203.816620 162.194168,203.512756 160.136597,203.005875 
z"/>
<path fill="#3260F8" opacity="1.000000" stroke="none" 
	d="
M160.119080,203.378967 
	C162.194168,203.512756 164.329330,203.816620 166.293655,204.567429 
	C170.827133,206.300232 175.130417,207.393082 179.251236,203.473145 
	C179.805908,202.945496 182.336563,203.319763 182.711639,203.980545 
	C184.402359,206.959305 186.185532,208.681961 190.103790,208.520706 
	C192.138229,208.436981 194.142807,211.504395 196.390320,211.926376 
	C201.297928,212.847794 206.386505,212.768387 211.331863,213.541306 
	C213.752792,213.919678 216.030655,215.260452 218.351761,216.217804 
	C220.891785,217.265427 223.401749,218.385651 225.933929,219.452606 
	C234.188431,222.930618 242.675934,225.385559 251.593414,226.733032 
	C254.895996,227.232071 257.803925,230.178955 260.961121,231.880966 
	C262.304871,232.605362 264.349915,233.894302 265.185638,233.405136 
	C272.953308,228.858597 279.519501,233.252411 286.416107,235.746399 
	C292.744354,238.034882 299.135345,240.165604 305.564026,242.154526 
	C309.206543,243.281464 312.980469,243.983444 317.078125,245.034225 
	C310.740662,251.858215 303.995575,258.500122 297.304535,265.196045 
	C277.316528,285.198517 257.351837,305.224335 237.369507,325.232483 
	C236.116943,326.486664 234.790665,327.667206 232.475021,329.844513 
	C237.985413,301.713531 243.224243,274.968964 248.608673,247.481079 
	C238.715836,247.481079 229.447021,247.441315 220.178696,247.491379 
	C209.141052,247.551010 198.718567,245.153976 189.088135,239.706924 
	C174.689713,231.563004 165.048126,219.538757 160.119080,203.378967 
z"/>
</svg>